<?xml version="1.0" encoding="utf-8"?>
<!-- Generator: Adobe Illustrator 22.0.0, SVG Export Plug-In . SVG Version: 6.00 Build 0)  -->
<svg version="1.1" id="Layer_1" xmlns="http://www.w3.org/2000/svg" xmlns:xlink="http://www.w3.org/1999/xlink" x="0px" y="0px"
	 viewBox="0 0 469.4 466.7" style="enable-background:new 0 0 469.4 466.7;" xml:space="preserve">
<style type="text/css">
	.st0{fill:#FFFFFF;}
</style>
<g>
	<path class="st0" d="M0.7,465.4l-1-0.1c0-0.2,1.5-23.7,17.2-36.2c8.8-7,20.4-9.3,34.4-6.8c12.1,2.1,25.9,6,40.4,10.1
		c43,12.1,91.8,25.9,115-1.5c13.8-16.2,14.2-37.1,14.6-59.2c0.5-27.1,1.1-55,28-74.1c19.9-14.1,47.5-13.7,74.2-13.3
		c38.6,0.6,75.1,1.1,87.2-40.3c4.8-16.4,9.8-39.6,15-64.1c11-51.5,24-112.2,42.8-147.9c0.2-0.5,0.6-1,0.9-1.5l0,1.8
		c-18.7,35.4-31.7,96.2-42.7,147.7c-5.3,24.5-10.2,47.7-15,64.2c-12.3,42.1-49.1,41.6-88.1,41c-26.5-0.4-53.9-0.8-73.6,13.1
		c-26.6,18.7-27.1,46.5-27.6,73.3c-0.4,21.3-0.8,43.3-14.8,59.9c-23.6,27.9-72.7,14-116,1.8c-14.5-4.1-28.3-8-40.3-10.1
		c-13.7-2.4-25-0.2-33.6,6.6C2.2,442.1,0.7,465.2,0.7,465.4z"/>
</g>
</svg>
